<svg width="90" height="83" viewBox="0 0 90 83" fill="none" xmlns="http://www.w3.org/2000/svg">
<path d="M40 83C62.0914 83 80 65.0914 80 43C80 20.9086 62.0914 3 40 3C17.9086 3 0 20.9086 0 43C0 65.0914 17.9086 83 40 83Z" fill="#141414"/>
<path d="M39 42.05C49.4945 42.05 58 38.5023 58 34.1308C58 29.7593 49.4945 26.2117 39 26.2117C28.5055 26.2117 20 29.7593 20 34.1308C20 38.5023 28.5055 42.05 39 42.05ZM39 54.7117C31.7488 54.7117 25.3363 52.9675 21.2914 50.2734C20.4676 51.164 20 52.1214 20 53.1308C20 57.5023 28.5055 61.05 39 61.05C49.4945 61.05 58 57.5023 58 53.1308C58 52.1214 57.5324 51.164 56.7086 50.2808C52.6637 52.9675 46.2512 54.7117 39 54.7117ZM39 45.2117C31.7488 45.2117 25.3363 43.4675 21.2914 40.7734C20.4676 41.664 20 42.6214 20 43.6308C20 48.0023 28.5055 51.55 39 51.55C49.4945 51.55 58 48.0023 58 43.6308C58 42.6214 57.5324 41.664 56.7086 40.7808C52.6637 43.4675 46.2512 45.2117 39 45.2117Z" fill="white"/>
<path d="M72 36C81.9411 36 90 27.9411 90 18C90 8.05887 81.9411 0 72 0C62.0589 0 54 8.05887 54 18C54 27.9411 62.0589 36 72 36Z" fill="#FFCF87"/>
<path d="M71.9833 30C65.3556 30 60 24.6444 60 18.0167C60 11.3891 65.3556 6 71.9833 6C78.6109 6 84 11.3891 84 18.0167C84 24.6444 78.6109 30 71.9833 30ZM71.9833 8.97908C67.0293 8.97908 63.0126 13.0628 63.0126 18.0167C63.0126 22.9707 67.0293 26.9874 71.9833 26.9874C76.9372 26.9874 81.0209 22.9707 81.0209 18.0167C81.0209 13.0628 76.9372 8.97908 71.9833 8.97908ZM75.2301 22.6025L70.9791 19.4895C70.6778 19.2552 70.3766 18.7531 70.3766 18.3515V11.5565C70.3766 11.1883 70.7113 10.887 71.113 10.887H72.5188C72.887 10.887 73.1883 11.1883 73.1883 11.5565V16.9121C73.1883 17.3138 73.4895 17.8159 73.7908 18.0502L76.9038 20.2929C77.205 20.5272 77.272 20.9958 77.0377 21.2971L76.2008 22.4351C75.9665 22.7364 75.5314 22.8033 75.2301 22.6025Z" fill="#5B5B5B"/>
</svg>
